<svg xmlns="http://www.w3.org/2000/svg" width="118.324" height="99.056" viewBox="0 0 118.324 99.056">
  <g id="button_greentea" transform="translate(-1034.853 -869)">
    <g id="그룹_18" data-name="그룹 18" transform="translate(315 35)">
      <g id="그룹_52" data-name="그룹 52" transform="translate(-1369.895 65.129)">
        <g id="패스_5" data-name="패스 5" transform="translate(0 -141)" fill="#eee8ae">
          <path d="M 2101.859619140625 1007.398620605469 L 2101.569580078125 1006.232482910156 L 2091.43896484375 965.4742431640625 L 2091.321044921875 964.999267578125 L 2091.505859375 964.5460205078125 L 2106.889404296875 926.8208618164062 L 2107.2626953125 925.9055786132812 L 2108.2509765625 925.8875122070312 L 2191.360107421875 924.3709106445312 L 2192.407958984375 924.351806640625 L 2192.7861328125 925.3289794921875 L 2206.29345703125 960.2105712890625 L 2206.483154296875 960.7003173828125 L 2206.325927734375 961.201416015625 L 2192.818603515625 1004.234619140625 L 2192.496826171875 1005.259643554688 L 2191.4228515625 1005.284973144531 L 2103.060791015625 1007.370239257812 L 2101.859619140625 1007.398620605469 Z" stroke="none"/>
          <path d="M 2191.387451171875 925.8706665039062 L 2108.2783203125 927.3872680664062 L 2092.894775390625 965.1124267578125 L 2103.025390625 1005.870666503906 L 2191.387451171875 1003.785400390625 L 2204.894775390625 960.752197265625 L 2191.387451171875 925.8706665039062 M 2193.42822265625 922.8329467773438 L 2208.07177734375 960.6484375 L 2207.757080078125 961.650634765625 L 2193.606201171875 1006.73388671875 L 2100.693603515625 1008.926513671875 L 2089.747314453125 964.8861083984375 L 2106.246826171875 924.423828125 L 2193.42822265625 922.8329467773438 Z" stroke="none" fill="#463f03"/>
        </g>
        <g id="패스_6" data-name="패스 6" transform="translate(9.872 -134.022)" fill="#888246">
          <path d="M 2100.072998046875 993.4424438476562 L 2099.78369140625 992.2755126953125 L 2091.43896484375 958.6277465820312 L 2091.3212890625 958.1536865234375 L 2091.50537109375 957.7013549804688 L 2104.177001953125 926.5574340820312 L 2104.5498046875 925.64111328125 L 2105.5390625 925.6229858398438 L 2173.997314453125 924.3709716796875 L 2175.0458984375 924.351806640625 L 2175.423828125 925.3301391601562 L 2186.550048828125 954.12646484375 L 2186.739013671875 954.6152954101562 L 2186.582275390625 955.1153564453125 L 2175.4560546875 990.6412963867188 L 2175.134765625 991.6671752929688 L 2174.06005859375 991.6925659179688 L 2101.27490234375 993.4140014648438 L 2100.072998046875 993.4424438476562 Z" stroke="none"/>
          <path d="M 2174.024658203125 925.8707275390625 L 2105.56640625 927.1227416992188 L 2092.894775390625 958.2666625976562 L 2101.239501953125 991.9144287109375 L 2174.024658203125 990.1929931640625 L 2185.15087890625 954.6670532226562 L 2174.024658203125 925.8707275390625 M 2176.067138671875 922.8328857421875 L 2188.326904296875 954.5634765625 L 2176.244873046875 993.1412963867188 L 2098.906494140625 994.970458984375 L 2089.747802734375 958.040771484375 L 2103.533203125 924.159423828125 L 2176.067138671875 922.8328857421875 Z" stroke="none" fill="#514c1e"/>
        </g>
      </g>
    </g>
    <g id="그룹_18-2" data-name="그룹 18" transform="translate(315 35)">
      <g id="그룹_14" data-name="그룹 14" transform="translate(0 4)">
        <g id="그룹_13" data-name="그룹 13" transform="translate(68.452 -406.399) rotate(7)">
          <g id="합치기_1" data-name="합치기 1" transform="translate(820 1145)" fill="#14bf77">
            <path d="M 76.27050018310547 62.49990463256836 L 5.530503273010254 62.49990463256836 C 3.308079719543457 62.49990463256836 1.499997496604919 60.69223403930664 1.499997496604919 58.47030258178711 C 1.499997496604919 56.81063461303711 2.540903329849243 55.29719924926758 4.09016227722168 54.70431518554688 L 5.957244396209717 53.98982238769531 L 4.749209403991699 52.39697265625 C 2.562820911407471 49.51411437988281 1.499997496604919 45.62611389160156 1.499997496604919 40.51079559326172 C 1.499997496604919 35.24583435058594 2.543315172195435 30.1390323638916 4.600962162017822 25.33225631713867 C 6.589244365692139 20.68751525878906 9.436280250549316 16.5155143737793 13.06296253204346 12.93216228485107 C 16.69087982177734 9.347585678100586 20.91552734375 6.533303260803223 25.61952781677246 4.567468166351318 C 30.49007987976074 2.532044410705566 35.66495132446289 1.499997496604919 41.00039672851562 1.499997496604919 C 46.33583450317383 1.499997496604919 51.51065444946289 2.532044410705566 56.3811149597168 4.567468166351318 C 61.08502197265625 6.533291816711426 65.30956268310547 9.347574234008789 68.93736267089844 12.93215084075928 C 72.56392669677734 16.5154914855957 75.41085815429688 20.68747901916504 77.39907073974609 25.33223342895508 C 79.45663452148438 30.13900947570801 80.49990081787109 35.24580764770508 80.49990081787109 40.51079559326172 C 80.49990081787109 45.82368087768555 79.53484344482422 49.80854034423828 77.549560546875 52.69306945800781 L 76.58077239990234 54.10069274902344 L 78.10206604003906 54.87890243530273 C 79.45787048339844 55.57245635986328 80.30010223388672 56.9485969543457 80.30010223388672 58.47030258178711 C 80.30010223388672 60.69223403930664 78.492431640625 62.49990463256836 76.27050018310547 62.49990463256836 Z" stroke="none"/>
            <path d="M 76.27050018310547 60.99989700317383 C 77.66533660888672 60.99989700317383 78.80010986328125 59.8651237487793 78.80010986328125 58.47029876708984 C 78.80010986328125 57.51456451416016 78.27088165283203 56.65013885498047 77.41895294189453 56.21433639526367 L 74.37632751464844 54.65790939331055 L 76.31393432617188 51.84264373779297 C 78.12130737304688 49.21660232543945 78.99990081787109 45.50992202758789 78.99990081787109 40.51080322265625 C 78.99990081787109 35.44988250732422 77.99735260009766 30.54168319702148 76.02008056640625 25.92251014709473 C 74.10861968994141 21.45703125 71.37093353271484 17.44543075561523 67.88308715820312 13.99915027618408 C 64.39275360107422 10.5504035949707 60.32832336425781 7.842777252197266 55.8027229309082 5.951483726501465 C 51.1164436340332 3.993016958236694 46.13623046875 3.000003814697266 41.00040435791016 3.000003814697266 C 35.86456298828125 3.000003814697266 30.88429641723633 3.993030309677124 26.19792366027832 5.951483726501465 C 21.67221641540527 7.842803955078125 17.6076831817627 10.55043029785156 14.11723041534424 13.99919033050537 C 10.62927055358887 17.44548416137695 7.891483783721924 21.45708465576172 5.979937076568604 25.92255020141602 C 4.002603530883789 30.54172325134277 3.000003814697266 35.44992446899414 3.000003814697266 40.51080322265625 C 3.000003814697266 45.28667068481445 3.963110446929932 48.87817764282227 5.944376945495605 51.49055099487305 L 8.360430717468262 54.67623138427734 L 4.626283645629883 56.10523223876953 C 3.653550386428833 56.47748184204102 3.000003814697266 57.42792510986328 3.000003814697266 58.47029876708984 C 3.000003814697266 59.8651237487793 4.135177135467529 60.99989700317383 5.530497074127197 60.99989700317383 L 76.27050018310547 60.99989700317383 M 76.27050018310547 63.99989700317383 L 5.530497074127197 63.99989700317383 C 2.475897073745728 63.99989700317383 3.742268972928287e-06 61.52400207519531 3.742268972928287e-06 58.47029876708984 C 3.742268972928287e-06 56.11204528808594 1.475617051124573 54.09877777099609 3.554057121276855 53.30339050292969 C 1.277963757514954 50.3022575378418 3.742268972928287e-06 46.17644500732422 3.742268972928287e-06 40.51080322265625 C 3.742268972928287e-06 18.13680458068848 18.35640335083008 3.742268972928287e-06 41.00040435791016 3.742268972928287e-06 C 63.64440536499023 3.742268972928287e-06 81.99990081787109 18.13680458068848 81.99990081787109 40.51080322265625 C 81.99990081787109 46.32939147949219 80.86383056640625 50.52332305908203 78.78518676757812 53.54349517822266 C 80.57500457763672 54.45905685424805 81.80010986328125 56.32141876220703 81.80010986328125 58.47029876708984 C 81.80010986328125 61.52400207519531 79.32420349121094 63.99989700317383 76.27050018310547 63.99989700317383 Z" stroke="none" fill="#0a7247"/>
          </g>
        </g>
        <rect id="사각형_17" data-name="사각형 17" width="92" height="70" transform="translate(733 834)" fill="none"/>
        <g id="그룹_16" data-name="그룹 16" transform="translate(0 -4)">
          <g id="그룹_16-2" data-name="그룹 16">
            <circle id="타원_1" data-name="타원 1" cx="2.5" cy="2.5" r="2.5" transform="translate(775 860)" fill="#fff"/>
            <circle id="타원_2" data-name="타원 2" cx="2.5" cy="2.5" r="2.5" transform="translate(784 860)" fill="#fff"/>
          </g>
          <rect id="사각형_18" data-name="사각형 18" width="6" height="3" rx="1.5" transform="translate(779 868)" fill="#fff"/>
        </g>
      </g>
    </g>
  </g>
</svg>
