<svg xmlns="http://www.w3.org/2000/svg" width="118.324" height="86.094" viewBox="0 0 118.324 86.094">
  <g id="그룹_12" data-name="그룹 12" transform="translate(-2089.747 -781.833)">
    <g id="패스_5" data-name="패스 5" transform="translate(0 -141)" fill="#6a6f8c">
      <path d="M 2101.859619140625 1007.398620605469 L 2101.569580078125 1006.232482910156 L 2091.43896484375 965.4742431640625 L 2091.321044921875 964.999267578125 L 2091.505859375 964.5460205078125 L 2106.889404296875 926.8208618164062 L 2107.2626953125 925.9055786132812 L 2108.2509765625 925.8875122070312 L 2191.360107421875 924.3709106445312 L 2192.407958984375 924.351806640625 L 2192.7861328125 925.3289794921875 L 2206.29345703125 960.2105712890625 L 2206.483154296875 960.7003173828125 L 2206.325927734375 961.201416015625 L 2192.818603515625 1004.234619140625 L 2192.496826171875 1005.259643554688 L 2191.4228515625 1005.284973144531 L 2103.060791015625 1007.370239257812 L 2101.859619140625 1007.398620605469 Z" stroke="none"/>
      <path d="M 2191.387451171875 925.8706665039062 L 2108.2783203125 927.3872680664062 L 2092.894775390625 965.1124267578125 L 2103.025390625 1005.870666503906 L 2191.387451171875 1003.785400390625 L 2204.894775390625 960.752197265625 L 2191.387451171875 925.8706665039062 M 2193.42822265625 922.8329467773438 L 2208.07177734375 960.6484375 L 2207.757080078125 961.650634765625 L 2193.606201171875 1006.73388671875 L 2100.693603515625 1008.926513671875 L 2089.747314453125 964.8861083984375 L 2106.246826171875 924.423828125 L 2193.42822265625 922.8329467773438 Z" stroke="none" fill="#3b2819"/>
    </g>
    <g id="패스_6" data-name="패스 6" transform="translate(9.872 -134.022)" fill="#453f3f">
      <path d="M 2100.072998046875 993.4424438476562 L 2099.78369140625 992.2755126953125 L 2091.43896484375 958.6277465820312 L 2091.3212890625 958.1536865234375 L 2091.50537109375 957.7013549804688 L 2104.177001953125 926.5574340820312 L 2104.5498046875 925.64111328125 L 2105.5390625 925.6229858398438 L 2173.997314453125 924.3709716796875 L 2175.0458984375 924.351806640625 L 2175.423828125 925.3301391601562 L 2186.550048828125 954.12646484375 L 2186.739013671875 954.6152954101562 L 2186.582275390625 955.1153564453125 L 2175.4560546875 990.6412963867188 L 2175.134765625 991.6671752929688 L 2174.06005859375 991.6925659179688 L 2101.27490234375 993.4140014648438 L 2100.072998046875 993.4424438476562 Z" stroke="none"/>
      <path d="M 2174.024658203125 925.8707275390625 L 2105.56640625 927.1227416992188 L 2092.894775390625 958.2666625976562 L 2101.239501953125 991.9144287109375 L 2174.024658203125 990.1929931640625 L 2185.15087890625 954.6670532226562 L 2174.024658203125 925.8707275390625 M 2176.067138671875 922.8328857421875 L 2188.326904296875 954.5634765625 L 2176.244873046875 993.1412963867188 L 2098.906494140625 994.970458984375 L 2089.747802734375 958.040771484375 L 2103.533203125 924.159423828125 L 2176.067138671875 922.8328857421875 Z" stroke="none" fill="#392f2e"/>
    </g>
  </g>
</svg>
