<svg xmlns="http://www.w3.org/2000/svg" width="261" height="56" viewBox="0 0 261 56">
  <g id="그룹_37" data-name="그룹 37" transform="translate(-824 -541.664)">
    <g id="그룹_35" data-name="그룹 35" transform="translate(824 542)">
      <rect id="사각형_24" data-name="사각형 24" width="5" height="56" rx="1" transform="translate(0 -0.336)" fill="#877669"/>
      <rect id="사각형_27" data-name="사각형 27" width="5" height="56" rx="1" transform="translate(23 -0.336)" fill="#877669"/>
      <rect id="사각형_38" data-name="사각형 38" width="5" height="56" rx="1" transform="translate(88 -0.336)" fill="#877669"/>
      <rect id="사각형_34" data-name="사각형 34" width="5" height="56" rx="1" transform="translate(59 -0.336)" fill="#877669"/>
      <rect id="사각형_40" data-name="사각형 40" width="5" height="56" rx="1" transform="translate(124 -0.336)" fill="#877669"/>
      <rect id="사각형_29" data-name="사각형 29" width="5" height="56" rx="1" transform="translate(37 -0.336)" fill="#877669"/>
      <rect id="사각형_37" data-name="사각형 37" width="5" height="56" rx="1" transform="translate(102 -0.336)" fill="#877669"/>
      <rect id="사각형_32" data-name="사각형 32" width="5" height="56" rx="1" transform="translate(73 -0.336)" fill="#877669"/>
      <rect id="사각형_26" data-name="사각형 26" width="3" height="56" rx="1" transform="translate(16 -0.336)" fill="#877669"/>
      <rect id="사각형_35" data-name="사각형 35" width="3" height="56" rx="1" transform="translate(52 -0.336)" fill="#877669"/>
      <rect id="사각형_41" data-name="사각형 41" width="3" height="56" rx="1" transform="translate(117 -0.336)" fill="#877669"/>
      <rect id="사각형_30" data-name="사각형 30" width="2" height="56" rx="1" transform="translate(46 -0.336)" fill="#877669"/>
      <rect id="사각형_36" data-name="사각형 36" width="2" height="56" rx="1" transform="translate(111 -0.336)" fill="#877669"/>
      <rect id="사각형_31" data-name="사각형 31" width="2" height="56" rx="1" transform="translate(82 -0.336)" fill="#877669"/>
      <rect id="사각형_28" data-name="사각형 28" width="3" height="56" rx="1" transform="translate(31 -0.336)" fill="#877669"/>
      <rect id="사각형_39" data-name="사각형 39" width="3" height="56" rx="1" transform="translate(96 -0.336)" fill="#877669"/>
      <rect id="사각형_33" data-name="사각형 33" width="3" height="56" rx="1" transform="translate(67 -0.336)" fill="#877669"/>
      <rect id="사각형_25" data-name="사각형 25" width="4" height="56" rx="1" transform="translate(8 -0.336)" fill="#877669"/>
    </g>
    <g id="그룹_36" data-name="그룹 36" transform="translate(956.304 542)">
      <rect id="사각형_24-2" data-name="사각형 24" width="5" height="56" rx="1" transform="translate(-0.304 -0.336)" fill="#877669"/>
      <rect id="사각형_27-2" data-name="사각형 27" width="5" height="56" rx="1" transform="translate(22.696 -0.336)" fill="#877669"/>
      <rect id="사각형_38-2" data-name="사각형 38" width="5" height="56" rx="1" transform="translate(87.696 -0.336)" fill="#877669"/>
      <rect id="사각형_34-2" data-name="사각형 34" width="5" height="56" rx="1" transform="translate(58.696 -0.336)" fill="#877669"/>
      <rect id="사각형_40-2" data-name="사각형 40" width="5" height="56" rx="1" transform="translate(123.696 -0.336)" fill="#877669"/>
      <rect id="사각형_29-2" data-name="사각형 29" width="4" height="56" rx="1" transform="translate(37.696 -0.336)" fill="#877669"/>
      <rect id="사각형_37-2" data-name="사각형 37" width="4" height="56" rx="1" transform="translate(102.696 -0.336)" fill="#877669"/>
      <rect id="사각형_32-2" data-name="사각형 32" width="4" height="56" rx="1" transform="translate(73.696 -0.336)" fill="#877669"/>
      <rect id="사각형_26-2" data-name="사각형 26" width="4" height="56" rx="1" transform="translate(15.696 -0.336)" fill="#877669"/>
      <rect id="사각형_35-2" data-name="사각형 35" width="4" height="56" rx="1" transform="translate(51.696 -0.336)" fill="#877669"/>
      <rect id="사각형_41-2" data-name="사각형 41" width="4" height="56" rx="1" transform="translate(116.696 -0.336)" fill="#877669"/>
      <rect id="사각형_30-2" data-name="사각형 30" width="2" height="56" rx="1" transform="translate(45.696 -0.336)" fill="#877669"/>
      <rect id="사각형_36-2" data-name="사각형 36" width="2" height="56" rx="1" transform="translate(110.696 -0.336)" fill="#877669"/>
      <rect id="사각형_31-2" data-name="사각형 31" width="2" height="56" rx="1" transform="translate(81.696 -0.336)" fill="#877669"/>
      <rect id="사각형_28-2" data-name="사각형 28" width="2" height="56" rx="1" transform="translate(31.696 -0.336)" fill="#877669"/>
      <rect id="사각형_39-2" data-name="사각형 39" width="2" height="56" rx="1" transform="translate(96.696 -0.336)" fill="#877669"/>
      <rect id="사각형_33-2" data-name="사각형 33" width="2" height="56" rx="1" transform="translate(67.696 -0.336)" fill="#877669"/>
      <rect id="사각형_25-2" data-name="사각형 25" width="3" height="56" rx="1" transform="translate(8.696 -0.336)" fill="#877669"/>
    </g>
  </g>
</svg>
