<svg id="그룹_8" data-name="그룹 8" xmlns="http://www.w3.org/2000/svg" width="38" height="45" viewBox="0 0 38 45">
  <g id="그룹_6" data-name="그룹 6">
    <g id="사각형_13" data-name="사각형 13" transform="translate(0 27)" fill="#392b20" stroke="#1c1108" stroke-width="2">
      <rect width="38" height="18" rx="9" stroke="none"/>
      <rect x="1" y="1" width="36" height="16" rx="8" fill="none"/>
    </g>
    <g id="패스_4" data-name="패스 4" transform="translate(8)" fill="#e2b97e">
      <path d="M 16 32 L 7 32 C 4.242990016937256 32 2 29.75700950622559 2 27 L 2 26.95248985290527 L 1.995499968528748 26.90518951416016 L 0.0002035029901890084 5.954576969146729 C 0.02465847879648209 3.218379497528076 2.258134603500366 1 5 1 L 18 1 C 20.74186515808105 1 22.975341796875 3.218379497528076 22.99979591369629 5.954576969146729 L 21.0044994354248 26.90518951416016 L 21 26.95248985290527 L 21 27 C 21 29.75700950622559 18.75700950622559 32 16 32 Z" stroke="none"/>
      <path d="M 5 2 C 2.822929382324219 2 1.0465087890625 3.748115539550781 1.00090217590332 5.914451599121094 L 3 26.90497970581055 L 3 27 C 3 29.20561027526855 4.794389724731445 31 7 31 L 16 31 C 18.20561027526855 31 20 29.20561027526855 20 27 L 20 26.90497970581055 L 21.99909782409668 5.914451599121094 C 21.9534912109375 3.748115539550781 20.17707061767578 2 18 2 L 5 2 M 5 0 L 18 0 C 21.3137092590332 0 24 2.686290740966797 24 6 L 22 27 C 22 30.3137092590332 19.3137092590332 33 16 33 L 7 33 C 3.686290740966797 33 1 30.3137092590332 1 27 L -1 6 C -1 2.686290740966797 1.686290740966797 0 5 0 Z" stroke="none" fill="#684532"/>
    </g>
  </g>
</svg>
