<svg xmlns="http://www.w3.org/2000/svg" width="24" height="24" viewBox="0 0 24 24">
  <g id="그룹_30" data-name="그룹 30" transform="translate(-1844 -55)">
    <rect id="사각형_21" data-name="사각형 21" width="24" height="24" transform="translate(1844 55)" fill="none"/>
    <path id="bookmark_star_24dp_5F6368_FILL0_wght400_GRAD0_opsz24" d="M205.4-827.778l2.6-1.528,2.6,1.528-.686-2.889,2.286-1.917-3-.25-1.2-2.722-1.2,2.722-3,.25,2.286,1.917ZM200-820v-17.778a2.111,2.111,0,0,1,.671-1.57,2.233,2.233,0,0,1,1.614-.653h11.429a2.233,2.233,0,0,1,1.614.653,2.111,2.111,0,0,1,.671,1.57V-820l-8-3.333Zm2.286-3.389L208-825.778l5.714,2.389v-14.389H202.286Zm0-14.389h0Z" transform="translate(1648 897)" fill="#fff" stroke="#fff" stroke-linecap="round" stroke-linejoin="round" stroke-width="0.5"/>
  </g>
</svg>
