<svg xmlns="http://www.w3.org/2000/svg" width="40" height="40" viewBox="0 0 40 40">
  <g id="그룹_44" data-name="그룹 44" transform="translate(-940 -202)">
    <path id="photo_camera_24dp_5F6368_FILL1_wght400_GRAD0_opsz24" d="M98-813.9a7.811,7.811,0,0,0,5.738-2.363A7.811,7.811,0,0,0,106.1-822a7.811,7.811,0,0,0-2.362-5.737A7.811,7.811,0,0,0,98-830.1a7.811,7.811,0,0,0-5.738,2.362A7.811,7.811,0,0,0,89.9-822a7.811,7.811,0,0,0,2.362,5.737A7.811,7.811,0,0,0,98-813.9Zm0-3.6a4.345,4.345,0,0,1-3.2-1.3,4.345,4.345,0,0,1-1.3-3.2,4.345,4.345,0,0,1,1.3-3.2A4.345,4.345,0,0,1,98-826.5a4.345,4.345,0,0,1,3.195,1.305A4.345,4.345,0,0,1,102.5-822a4.345,4.345,0,0,1-1.305,3.2A4.345,4.345,0,0,1,98-817.5Zm-14.4,9.9a3.467,3.467,0,0,1-2.542-1.057A3.467,3.467,0,0,1,80-811.2v-21.6a3.467,3.467,0,0,1,1.057-2.542A3.467,3.467,0,0,1,83.6-836.4h5.67L92.6-840h10.8l3.33,3.6h5.67a3.467,3.467,0,0,1,2.542,1.057A3.467,3.467,0,0,1,116-832.8v21.6a3.467,3.467,0,0,1-1.058,2.543A3.467,3.467,0,0,1,112.4-807.6Z" transform="translate(862 1045.8)" fill="#a27e4a"/>
    <rect id="사각형_44" data-name="사각형 44" width="40" height="40" transform="translate(940 202)" fill="none"/>
  </g>
</svg>
